<?xml version="1.0" encoding="utf-8"?>
<!-- Svg Vector Icons : http://www.onlinewebfonts.com/icon -->
<!DOCTYPE svg PUBLIC "-//W3C//DTD SVG 1.1//EN" "http://www.w3.org/Graphics/SVG/1.1/DTD/svg11.dtd">
<svg version="1.1"
    xmlns="http://www.w3.org/2000/svg"
    xmlns:xlink="http://www.w3.org/1999/xlink" x="0px" y="0px" viewBox="0 0 1000 1000" enable-background="new 0 0 1000 1000" xml:space="preserve">
    <metadata> Svg Vector Icons : http://www.onlinewebfonts.com/icon </metadata>
    <g>
        <g transform="translate(0.000000,511.000000) scale(0.100000,-0.100000)">
            <path fill = "#ff9c12" d="M5042.5,3383.5c-39.6-51.5-41.6-75.2-41.6-724.4v-671l49.5-47.5c85.1-87.1,227.6-45.5,257.3,75.2c5.9,23.8,9.9,336.5,5.9,692.7l-5.9,651.2l-47.5,37.6C5191,3452.7,5092,3446.8,5042.5,3383.5z"/>
            <path fill = "#ff9c12" d="M1800.5,2029.7c-65.3-25.7-110.8-106.9-97-174.2c15.8-65.3,902.5-959.9,981.7-989.6c61.4-23.8,166.3,13.8,186,65.3c39.6,106.9,25.7,124.7-467.1,617.5c-265.2,261.3-498.8,480.9-520.5,486.9C1861.9,2041.6,1824.3,2039.6,1800.5,2029.7z"/>
            <path fill = "#ff9c12" d="M8306.2,2035.6c-15.8-5.9-245.4-225.6-508.7-488.9c-502.7-498.8-518.6-518.6-461.2-625.4c29.7-55.4,120.7-79.2,190-49.5c31.7,13.9,259.3,229.6,506.7,479c490.8,492.8,516.6,528.4,427.5,625.4C8411.1,2029.7,8353.7,2051.5,8306.2,2035.6z"/>
            <path fill = "#ff9c12" d="M4541.8,1463.6c-370.1-67.3-801.6-251.4-1138-488.9c-215.7-152.4-591.8-524.5-748.1-742.2c-312.7-433.5-534.4-957.9-577.9-1369.6l-11.9-118.8h-916.4c-506.7,0-936.2-7.9-963.9-17.8c-25.7-9.9-59.4-45.5-73.2-79.2c-31.7-77.2,0-164.3,71.3-197.9c71.2-31.7,9563.6-31.7,9634.8,0c108.9,51.5,108.9,221.7,0,273.1c-33.7,15.8-332.5,21.8-987.6,21.8h-940.1l-7.9,45.5c-3.9,23.8-19.8,110.8-31.7,192c-91,568-441.4,1197.4-932.2,1674.4c-455.2,441.4-942.1,700.6-1520,807.5C5194.9,1503.2,4753.5,1503.2,4541.8,1463.6z M5442.3,1131.1c496.8-126.7,938.2-384,1328.1-775.9C7219.6-92,7490.8-610.6,7564-1160.8l11.9-95H4975.2H2374.5l17.8,124.7c71.2,534.4,334.5,1029.2,785.7,1478.5C3868.8,1038.1,4692.2,1321.1,5442.3,1131.1z"/>
            <path fill = "#ff9c12" d="M187.5,56.4c-69.3-79.2-59.4-199.9,19.8-241.5c19.8-9.9,322.6-87.1,672.9-170.2c674.9-158.3,678.9-160.3,744.2-65.3c41.6,57.4,39.6,120.7-4,174.2c-27.7,35.6-144.5,69.3-657.1,190C622.9,24.7,314.2,90,280.5,90C244.9,90,203.3,74.2,187.5,56.4z"/>
            <path fill = "#ff9c12" d="M8943.5-58.4C8615-137.6,8332-212.8,8316.1-226.6c-45.5-37.6-57.4-134.6-21.8-188c67.3-102.9,67.3-102.9,750.1,59.4c350.3,83.1,657.1,164.3,680.9,178.1c63.3,41.6,79.2,140.5,31.7,205.8C9693.7,111.8,9604.6,101.9,8943.5-58.4z"/>
            <path fill = "#ff9c12" d="M1390.8-2128.6c-104.9-81.2-51.5-239.5,91-265.2c35.6-5.9,716.5-9.9,1512.1-5.9c1391.4,5.9,1450.8,7.9,1490.3,43.6c55.4,51.4,57.4,174.2,2,229.6c-39.6,39.6-65.3,39.6-1541.8,39.6C1456.2-2087.1,1442.3-2087.1,1390.8-2128.6z"/>
            <path fill = "#ff9c12" d="M5103.9-2132.6c-55.4-57.4-57.4-158.3-5.9-209.8c57.4-57.4,130.6-65.3,583.9-57.4l411.7,5.9l47.5,55.4c61.4,71.3,61.4,140.5-2,201.9l-47.5,49.5h-473C5151.4-2087.1,5145.4-2087.1,5103.9-2132.6z"/>
            <path fill = "#ff9c12" d="M6752.5-2136.6c-63.3-61.3-63.3-130.6-2-201.9l47.5-55.4l829.3-5.9c455.2-4,857,0,892.6,5.9c142.5,25.7,195.9,184.1,91.1,265.2c-51.5,41.6-73.2,41.6-932.2,41.6h-878.8L6752.5-2136.6z"/>
            <path fill = "#ff9c12" d="M2210.2-2957.9c-23.8-23.7-39.6-65.3-39.6-108.8c0-43.6,15.8-85.1,39.6-108.9c37.6-37.6,65.3-39.6,514.6-39.6h477l47.5,49.5c59.4,59.4,63.3,126.7,7.9,196l-39.6,51.4h-484.9C2275.6-2918.4,2247.8-2920.3,2210.2-2957.9z"/>
            <path fill = "#ff9c12" d="M3855-2969.8c-23.7-29.7-41.6-73.2-41.6-97s17.8-67.3,41.6-97l39.6-51.4H4993h1098.5l47.5,49.5c59.4,59.4,63.3,126.7,7.9,196l-39.6,51.4H5000.9H3894.6L3855-2969.8z"/>
            <path fill = "#ff9c12" d="M6744.6-2969.8c-55.4-69.3-51.5-136.6,7.9-196l47.5-49.5h477c449.3,0,477,2,514.6,39.6c23.8,23.8,39.6,65.3,39.6,108.9c0,43.5-15.8,85.1-39.6,108.8c-37.6,37.6-65.3,39.6-522.5,39.6h-484.9L6744.6-2969.8z"/>
        </g>
    </g>
</svg>