<?xml version="1.0" encoding="utf-8"?>
<!-- Svg Vector Icons : http://www.onlinewebfonts.com/icon -->
<!DOCTYPE svg PUBLIC "-//W3C//DTD SVG 1.1//EN" "http://www.w3.org/Graphics/SVG/1.1/DTD/svg11.dtd">
<svg version="1.1"
    xmlns="http://www.w3.org/2000/svg"
    xmlns:xlink="http://www.w3.org/1999/xlink" x="0px" y="0px" viewBox="0 0 1000 1000" enable-background="new 0 0 1000 1000" xml:space="preserve">
    <metadata> Svg Vector Icons : http://www.onlinewebfonts.com/icon </metadata>
    <g>
        <g transform="translate(0.000000,511.000000) scale(0.100000,-0.100000)">
            <path fill = "#C45141" d="M4928.4,3465.4c-22.5-10.2-59.3-38.9-81.8-63.4c-38.8-43-40.9-73.6-40.9-738.4v-693.4l57.3-55.2c40.9-42.9,75.7-57.3,137.1-57.3c61.4,0,96.1,14.3,137,57.3l57.3,55.2v695.5v695.5l-51.1,51.1C5085.9,3467.4,4991.8,3492,4928.4,3465.4z"/>
            <path fill = "#C45141" d="M1835.6,2035.6c-71.6-10.2-149.3-118.7-149.3-204.6c0-69.6,30.7-104.3,474.6-550.2c306.8-306.8,497.1-484.8,540-497.1c133-45,265.9,71.6,247.5,212.7c-10.2,73.6-57.3,126.8-478.7,548.2C2003.3,2011,1948.1,2054,1835.6,2035.6z"/>
            <path fill = "#C45141" d="M8260.5,2037.6c-22.5-4.1-259.8-227-525.7-493c-470.5-472.5-484.8-488.9-484.8-568.7c0-45,14.3-100.2,30.7-124.8c45-63.4,153.4-94.1,227-67.5c32.8,12.3,263.9,227,515.5,476.6c499.1,497.1,529.8,542.1,464.3,666.8c-18.4,38.9-63.4,79.8-102.3,96.1c-38.9,16.4-73.6,26.6-75.7,26.6C8305.5,2047.8,8285.1,2041.7,8260.5,2037.6z"/>
            <path fill = "#C45141" d="M4826.1,1505.8C3940.4,1436.2,3128.4,941.2,2572,135.3C2314.3-237,2111.8-734,2062.7-1112.5l-12.3-106.4L1132-1225l-918.4-6.1l-55.2-57.3c-77.7-77.7-77.7-196.4,0-274.1l55.2-57.3H5000h4786.5l55.2,57.3c77.7,77.7,77.7,196.4,0,274.1l-55.2,57.3l-940.9,6.1l-940.9,6.1l-8.2,45c-6.1,24.5-20.4,104.3-32.7,178c-12.3,73.6-55.2,227-92.1,341.6C7426,386.9,6476.9,1258.3,5474.6,1456.7C5276.2,1495.6,4979.5,1518.1,4826.1,1505.8z"/>
            <path fill = "#C45141" d="M207.4,67.8C105.1-14,121.5-196.1,238.1-253.3c98.2-51.1,1282.5-317.1,1345.9-302.7c79.8,18.4,143.2,100.2,143.2,188.2c0,106.4-51.1,165.7-171.8,200.5C1305.8-95.8,395.6,108.7,332.2,108.7C291.3,108.7,238.1,90.3,207.4,67.8z"/>
            <path fill = "#C45141" d="M8896.7-36.5c-550.3-130.9-597.3-145.2-648.4-202.5c-94.1-102.3-59.3-255.7,67.5-306.8c57.3-24.6,120.7-14.3,709.8,124.8c456.1,106.4,660.7,163.6,695.5,192.3c28.6,24.6,51.1,71.6,59.3,124.8c8.2,67.5,2.1,92.1-45,147.3c-47,57.3-67.5,65.5-149.3,63.4C9532.8,106.7,9224,41.2,8896.7-36.5z"/>
            <path fill = "#C45141" d="M1451.1-2057.5c-130.9-55.2-165.7-225-65.5-323.2l55.2-57.3h1513.7h1513.7l55.2,55.2c77.7,79.8,77.7,198.4,0,278.2l-55.2,55.2l-1489.1,4.1C2160.9-2043.2,1473.6-2049.3,1451.1-2057.5z"/>
            <path fill = "#C45141" d="M5133-2057.5c-130.9-55.2-165.7-225-65.5-323.2l55.2-57.3h490.9h490.9l55.2,55.2c77.7,79.8,77.7,198.4,0,278.2l-55.2,55.2l-466.4,4.1C5382.5-2043.2,5155.5-2049.3,5133-2057.5z"/>
            <path fill = "#C45141" d="M6769.4-2057.5c-130.9-55.2-165.7-225-65.4-323.2l55.2-57.3h900h900l55.2,55.2c77.7,79.8,77.7,198.4,0,278.2l-55.2,55.2l-875.5,4.1C7203-2043.2,6791.9-2049.3,6769.4-2057.5z"/>
            <path fill = "#C45141" d="M2269.3-2875.7c-130.9-55.2-165.7-225-65.5-323.2l55.2-57.3H2750h490.9l55.2,55.2c77.7,79.8,77.7,198.4,0,278.2l-55.2,55.2l-466.4,4.1C2518.8-2861.4,2291.8-2867.5,2269.3-2875.7z"/>
            <path fill = "#C45141" d="M3905.7-2875.7c-130.9-55.2-165.7-225-65.5-323.2l55.2-57.3H5000h1104.6l55.2,55.2c77.7,79.8,77.7,198.4,0,278.2l-55.2,55.2l-1080,4.1C4431.4-2861.4,3928.2-2867.5,3905.7-2875.7z"/>
            <path fill = "#C45141" d="M6769.4-2875.7c-130.9-55.2-165.7-225-65.4-323.2l55.2-57.3h490.9H7741l55.2,55.2c77.7,79.8,77.7,198.4,0,278.2l-55.2,55.2l-466.4,4.1C7018.9-2861.4,6791.9-2867.5,6769.4-2875.7z"/>
        </g>
    </g>
</svg>